<mxfile host="app.diagrams.net" agent="Mozilla/5.0 (Windows NT 10.0; Win64; x64; rv:131.0) Gecko/20100101 Firefox/131.0" version="24.7.16">
  <diagram name="Página-1" id="TTimGX9IB3Y25PL794OW">
    <mxGraphModel dx="2836" dy="909" grid="1" gridSize="10" guides="1" tooltips="1" connect="1" arrows="1" fold="1" page="1" pageScale="1" pageWidth="827" pageHeight="1169" math="0" shadow="0">
      <root>
        <mxCell id="0" />
        <mxCell id="1" parent="0" />
        <mxCell id="COLjldbHGbEnHfGUeLp_-46" value="" style="rounded=1;whiteSpace=wrap;html=1;" vertex="1" parent="1">
          <mxGeometry x="490" y="140" width="120" height="60" as="geometry" />
        </mxCell>
        <mxCell id="COLjldbHGbEnHfGUeLp_-47" value="WebSite" style="text;html=1;strokeColor=none;fillColor=none;align=center;verticalAlign=middle;whiteSpace=wrap;rounded=0;" vertex="1" parent="1">
          <mxGeometry x="520" y="155" width="60" height="30" as="geometry" />
        </mxCell>
        <mxCell id="COLjldbHGbEnHfGUeLp_-48" value="" style="endArrow=none;html=1;rounded=0;entryX=0;entryY=0.5;entryDx=0;entryDy=0;" edge="1" parent="1" target="COLjldbHGbEnHfGUeLp_-46">
          <mxGeometry width="50" height="50" relative="1" as="geometry">
            <mxPoint x="410" y="170" as="sourcePoint" />
            <mxPoint x="370" y="190" as="targetPoint" />
            <Array as="points" />
          </mxGeometry>
        </mxCell>
        <mxCell id="COLjldbHGbEnHfGUeLp_-107" style="rounded=0;orthogonalLoop=1;jettySize=auto;html=1;exitX=0.75;exitY=1;exitDx=0;exitDy=0;endArrow=none;endFill=0;" edge="1" parent="1" source="COLjldbHGbEnHfGUeLp_-49">
          <mxGeometry relative="1" as="geometry">
            <mxPoint x="199.66666666666697" y="360" as="targetPoint" />
          </mxGeometry>
        </mxCell>
        <mxCell id="COLjldbHGbEnHfGUeLp_-49" value="" style="rounded=1;whiteSpace=wrap;html=1;" vertex="1" parent="1">
          <mxGeometry x="110" y="140" width="120" height="60" as="geometry" />
        </mxCell>
        <mxCell id="COLjldbHGbEnHfGUeLp_-50" value="" style="html=1;whiteSpace=wrap;aspect=fixed;shape=isoRectangle;" vertex="1" parent="1">
          <mxGeometry x="310" y="137.5" width="108.33" height="65" as="geometry" />
        </mxCell>
        <mxCell id="COLjldbHGbEnHfGUeLp_-51" value="" style="endArrow=none;html=1;rounded=0;exitX=1;exitY=0.5;exitDx=0;exitDy=0;" edge="1" parent="1" source="COLjldbHGbEnHfGUeLp_-49" target="COLjldbHGbEnHfGUeLp_-50">
          <mxGeometry width="50" height="50" relative="1" as="geometry">
            <mxPoint x="400" y="370" as="sourcePoint" />
            <mxPoint x="450" y="320" as="targetPoint" />
          </mxGeometry>
        </mxCell>
        <mxCell id="COLjldbHGbEnHfGUeLp_-52" value="Cadastra" style="text;html=1;strokeColor=none;fillColor=none;align=center;verticalAlign=middle;whiteSpace=wrap;rounded=0;" vertex="1" parent="1">
          <mxGeometry x="334.15999999999997" y="155" width="60" height="30" as="geometry" />
        </mxCell>
        <mxCell id="COLjldbHGbEnHfGUeLp_-53" value="Usuario" style="text;html=1;strokeColor=none;fillColor=none;align=center;verticalAlign=middle;whiteSpace=wrap;rounded=0;" vertex="1" parent="1">
          <mxGeometry x="140" y="155" width="60" height="30" as="geometry" />
        </mxCell>
        <mxCell id="COLjldbHGbEnHfGUeLp_-93" style="rounded=0;orthogonalLoop=1;jettySize=auto;html=1;exitX=1;exitY=0.5;exitDx=0;exitDy=0;entryX=0;entryY=0.5;entryDx=0;entryDy=0;endArrow=none;endFill=0;" edge="1" parent="1" source="COLjldbHGbEnHfGUeLp_-80" target="COLjldbHGbEnHfGUeLp_-49">
          <mxGeometry relative="1" as="geometry" />
        </mxCell>
        <mxCell id="COLjldbHGbEnHfGUeLp_-80" value="Senha" style="ellipse;whiteSpace=wrap;html=1;align=center;fontStyle=4;" vertex="1" parent="1">
          <mxGeometry x="-100" y="10" width="100" height="40" as="geometry" />
        </mxCell>
        <mxCell id="COLjldbHGbEnHfGUeLp_-94" style="rounded=0;orthogonalLoop=1;jettySize=auto;html=1;entryX=0;entryY=0.5;entryDx=0;entryDy=0;endArrow=none;endFill=0;" edge="1" parent="1" source="COLjldbHGbEnHfGUeLp_-81" target="COLjldbHGbEnHfGUeLp_-49">
          <mxGeometry relative="1" as="geometry" />
        </mxCell>
        <mxCell id="COLjldbHGbEnHfGUeLp_-81" value="Primeiro Nome" style="ellipse;whiteSpace=wrap;html=1;align=center;fontStyle=4;" vertex="1" parent="1">
          <mxGeometry x="-100" y="70" width="100" height="40" as="geometry" />
        </mxCell>
        <mxCell id="COLjldbHGbEnHfGUeLp_-95" style="rounded=0;orthogonalLoop=1;jettySize=auto;html=1;endArrow=none;endFill=0;" edge="1" parent="1" source="COLjldbHGbEnHfGUeLp_-82">
          <mxGeometry relative="1" as="geometry">
            <mxPoint x="110" y="170" as="targetPoint" />
          </mxGeometry>
        </mxCell>
        <mxCell id="COLjldbHGbEnHfGUeLp_-82" value="Segundo Nome" style="ellipse;whiteSpace=wrap;html=1;align=center;fontStyle=4;" vertex="1" parent="1">
          <mxGeometry x="-100" y="130" width="100" height="40" as="geometry" />
        </mxCell>
        <mxCell id="COLjldbHGbEnHfGUeLp_-96" style="rounded=0;orthogonalLoop=1;jettySize=auto;html=1;exitX=1;exitY=0.5;exitDx=0;exitDy=0;entryX=0;entryY=0.5;entryDx=0;entryDy=0;endArrow=none;endFill=0;" edge="1" parent="1" source="COLjldbHGbEnHfGUeLp_-83" target="COLjldbHGbEnHfGUeLp_-49">
          <mxGeometry relative="1" as="geometry" />
        </mxCell>
        <mxCell id="COLjldbHGbEnHfGUeLp_-83" value="Telefone" style="ellipse;whiteSpace=wrap;html=1;align=center;fontStyle=4;" vertex="1" parent="1">
          <mxGeometry x="-100" y="190" width="100" height="40" as="geometry" />
        </mxCell>
        <mxCell id="COLjldbHGbEnHfGUeLp_-97" style="rounded=0;orthogonalLoop=1;jettySize=auto;html=1;exitX=1;exitY=0.5;exitDx=0;exitDy=0;entryX=0;entryY=0.5;entryDx=0;entryDy=0;endArrow=none;endFill=0;" edge="1" parent="1" source="COLjldbHGbEnHfGUeLp_-84" target="COLjldbHGbEnHfGUeLp_-49">
          <mxGeometry relative="1" as="geometry" />
        </mxCell>
        <mxCell id="COLjldbHGbEnHfGUeLp_-84" value="Email" style="ellipse;whiteSpace=wrap;html=1;align=center;fontStyle=4;" vertex="1" parent="1">
          <mxGeometry x="-100" y="250" width="100" height="40" as="geometry" />
        </mxCell>
        <mxCell id="COLjldbHGbEnHfGUeLp_-99" style="rounded=0;orthogonalLoop=1;jettySize=auto;html=1;exitX=1;exitY=0.5;exitDx=0;exitDy=0;endArrow=none;endFill=0;" edge="1" parent="1" source="COLjldbHGbEnHfGUeLp_-85">
          <mxGeometry relative="1" as="geometry">
            <mxPoint x="110" y="170" as="targetPoint" />
          </mxGeometry>
        </mxCell>
        <mxCell id="COLjldbHGbEnHfGUeLp_-85" value="CEP" style="ellipse;whiteSpace=wrap;html=1;align=center;fontStyle=4;" vertex="1" parent="1">
          <mxGeometry x="-100" y="310" width="100" height="40" as="geometry" />
        </mxCell>
        <mxCell id="COLjldbHGbEnHfGUeLp_-100" style="rounded=0;orthogonalLoop=1;jettySize=auto;html=1;exitX=1;exitY=0.5;exitDx=0;exitDy=0;endArrow=none;endFill=0;" edge="1" parent="1" source="COLjldbHGbEnHfGUeLp_-86">
          <mxGeometry relative="1" as="geometry">
            <mxPoint x="110" y="170" as="targetPoint" />
          </mxGeometry>
        </mxCell>
        <mxCell id="COLjldbHGbEnHfGUeLp_-86" value="idUsuario" style="ellipse;whiteSpace=wrap;html=1;align=center;fontStyle=4;" vertex="1" parent="1">
          <mxGeometry x="-100" y="370" width="100" height="40" as="geometry" />
        </mxCell>
        <mxCell id="COLjldbHGbEnHfGUeLp_-101" style="rounded=0;orthogonalLoop=1;jettySize=auto;html=1;exitX=1;exitY=0.5;exitDx=0;exitDy=0;endArrow=none;endFill=0;" edge="1" parent="1" source="COLjldbHGbEnHfGUeLp_-87">
          <mxGeometry relative="1" as="geometry">
            <mxPoint x="110" y="170" as="targetPoint" />
          </mxGeometry>
        </mxCell>
        <mxCell id="COLjldbHGbEnHfGUeLp_-87" value="Estado" style="ellipse;whiteSpace=wrap;html=1;align=center;fontStyle=4;" vertex="1" parent="1">
          <mxGeometry x="-100" y="430" width="100" height="40" as="geometry" />
        </mxCell>
        <mxCell id="COLjldbHGbEnHfGUeLp_-102" style="rounded=0;orthogonalLoop=1;jettySize=auto;html=1;exitX=1;exitY=0.5;exitDx=0;exitDy=0;endArrow=none;endFill=0;" edge="1" parent="1" source="COLjldbHGbEnHfGUeLp_-88">
          <mxGeometry relative="1" as="geometry">
            <mxPoint x="110" y="170" as="targetPoint" />
          </mxGeometry>
        </mxCell>
        <mxCell id="COLjldbHGbEnHfGUeLp_-88" value="Pais" style="ellipse;whiteSpace=wrap;html=1;align=center;fontStyle=4;" vertex="1" parent="1">
          <mxGeometry x="-100" y="490" width="100" height="40" as="geometry" />
        </mxCell>
        <mxCell id="COLjldbHGbEnHfGUeLp_-103" style="rounded=0;orthogonalLoop=1;jettySize=auto;html=1;exitX=1;exitY=0.5;exitDx=0;exitDy=0;endArrow=none;endFill=0;" edge="1" parent="1" source="COLjldbHGbEnHfGUeLp_-89">
          <mxGeometry relative="1" as="geometry">
            <mxPoint x="110" y="170" as="targetPoint" />
          </mxGeometry>
        </mxCell>
        <mxCell id="COLjldbHGbEnHfGUeLp_-89" value="Endereço" style="ellipse;whiteSpace=wrap;html=1;align=center;fontStyle=4;" vertex="1" parent="1">
          <mxGeometry x="-100" y="550" width="100" height="40" as="geometry" />
        </mxCell>
        <mxCell id="COLjldbHGbEnHfGUeLp_-104" style="rounded=0;orthogonalLoop=1;jettySize=auto;html=1;exitX=1;exitY=0.5;exitDx=0;exitDy=0;endArrow=none;endFill=0;" edge="1" parent="1" source="COLjldbHGbEnHfGUeLp_-90">
          <mxGeometry relative="1" as="geometry">
            <mxPoint x="110" y="169" as="targetPoint" />
          </mxGeometry>
        </mxCell>
        <mxCell id="COLjldbHGbEnHfGUeLp_-90" value="Cidade" style="ellipse;whiteSpace=wrap;html=1;align=center;fontStyle=4;" vertex="1" parent="1">
          <mxGeometry x="-100" y="610" width="100" height="40" as="geometry" />
        </mxCell>
        <mxCell id="COLjldbHGbEnHfGUeLp_-106" style="rounded=0;orthogonalLoop=1;jettySize=auto;html=1;exitX=1;exitY=0.5;exitDx=0;exitDy=0;endArrow=none;endFill=0;" edge="1" parent="1" source="COLjldbHGbEnHfGUeLp_-89">
          <mxGeometry relative="1" as="geometry">
            <mxPoint x="110" y="170" as="targetPoint" />
            <mxPoint y="570" as="sourcePoint" />
          </mxGeometry>
        </mxCell>
        <mxCell id="COLjldbHGbEnHfGUeLp_-109" style="rounded=0;orthogonalLoop=1;jettySize=auto;html=1;exitX=0.5;exitY=1;exitDx=0;exitDy=0;endArrow=none;endFill=0;entryX=0.5;entryY=0;entryDx=0;entryDy=0;" edge="1" parent="1" source="COLjldbHGbEnHfGUeLp_-108" target="COLjldbHGbEnHfGUeLp_-110">
          <mxGeometry relative="1" as="geometry">
            <mxPoint x="320" y="550" as="targetPoint" />
          </mxGeometry>
        </mxCell>
        <mxCell id="COLjldbHGbEnHfGUeLp_-108" value="Realiza" style="shape=rhombus;perimeter=rhombusPerimeter;whiteSpace=wrap;html=1;align=center;" vertex="1" parent="1">
          <mxGeometry x="140" y="360" width="120" height="60" as="geometry" />
        </mxCell>
        <mxCell id="COLjldbHGbEnHfGUeLp_-110" value="Doacao" style="whiteSpace=wrap;html=1;align=center;" vertex="1" parent="1">
          <mxGeometry x="135" y="640" width="130" height="60" as="geometry" />
        </mxCell>
        <mxCell id="COLjldbHGbEnHfGUeLp_-116" style="rounded=0;orthogonalLoop=1;jettySize=auto;html=1;endArrow=none;endFill=0;" edge="1" parent="1">
          <mxGeometry relative="1" as="geometry">
            <mxPoint x="200" y="700" as="targetPoint" />
            <mxPoint x="200" y="830" as="sourcePoint" />
          </mxGeometry>
        </mxCell>
        <mxCell id="COLjldbHGbEnHfGUeLp_-112" value="Quantidade de Usuarios" style="ellipse;whiteSpace=wrap;html=1;align=center;fontStyle=4;" vertex="1" parent="1">
          <mxGeometry x="150" y="830" width="100" height="40" as="geometry" />
        </mxCell>
        <mxCell id="COLjldbHGbEnHfGUeLp_-115" style="rounded=0;orthogonalLoop=1;jettySize=auto;html=1;exitX=0.5;exitY=0;exitDx=0;exitDy=0;endArrow=none;endFill=0;" edge="1" parent="1">
          <mxGeometry relative="1" as="geometry">
            <mxPoint x="130" y="770" as="sourcePoint" />
            <mxPoint x="200" y="700" as="targetPoint" />
          </mxGeometry>
        </mxCell>
        <mxCell id="COLjldbHGbEnHfGUeLp_-113" value="Tipo De Doacao" style="ellipse;whiteSpace=wrap;html=1;align=center;fontStyle=4;" vertex="1" parent="1">
          <mxGeometry x="80" y="760" width="100" height="40" as="geometry" />
        </mxCell>
        <mxCell id="COLjldbHGbEnHfGUeLp_-117" style="rounded=0;orthogonalLoop=1;jettySize=auto;html=1;exitX=0;exitY=0;exitDx=0;exitDy=0;endArrow=none;endFill=0;entryX=0.5;entryY=1;entryDx=0;entryDy=0;" edge="1" parent="1" source="COLjldbHGbEnHfGUeLp_-114" target="COLjldbHGbEnHfGUeLp_-110">
          <mxGeometry relative="1" as="geometry">
            <mxPoint x="205" y="700" as="targetPoint" />
          </mxGeometry>
        </mxCell>
        <mxCell id="COLjldbHGbEnHfGUeLp_-114" value="Valor" style="ellipse;whiteSpace=wrap;html=1;align=center;fontStyle=4;" vertex="1" parent="1">
          <mxGeometry x="260" y="770" width="100" height="40" as="geometry" />
        </mxCell>
        <mxCell id="COLjldbHGbEnHfGUeLp_-119" style="rounded=0;orthogonalLoop=1;jettySize=auto;html=1;endArrow=none;endFill=0;entryX=0.5;entryY=1;entryDx=0;entryDy=0;" edge="1" parent="1" source="COLjldbHGbEnHfGUeLp_-118" target="COLjldbHGbEnHfGUeLp_-110">
          <mxGeometry relative="1" as="geometry">
            <mxPoint x="200" y="701" as="targetPoint" />
          </mxGeometry>
        </mxCell>
        <mxCell id="COLjldbHGbEnHfGUeLp_-118" value="Quantidade De Doacoes" style="ellipse;whiteSpace=wrap;html=1;align=center;fontStyle=4;" vertex="1" parent="1">
          <mxGeometry x="10" y="700" width="100" height="40" as="geometry" />
        </mxCell>
      </root>
    </mxGraphModel>
  </diagram>
</mxfile>
